<?xml version="1.0" ?><svg viewBox="0 0 64 64" xmlns="http://www.w3.org/2000/svg"><defs><style>.cls-1{fill:#dbe4eb;}.cls-2{fill:#e7ecf0;}.cls-3{fill:#544f56;}.cls-4{fill:#f7f8fa;}</style></defs><g id="Dolphin"><path class="cls-1" d="M22.35,15.64s-2.61-3.75-1.7-5.44S29.91,8,32.83,13.1l-5.46,6.6Z" id="path92746-5"/><path class="cls-2" d="M37,28.68h13.2a2.27,2.27,0,1,0,0-4.53,2.17,2.17,0,0,1-2-1.86,11.2,11.2,0,0,0-11-9.19H32.83a22.94,22.94,0,0,0-19.49,35l-.47.13A4.47,4.47,0,0,0,9.7,53.76l.64,2.39a1.15,1.15,0,0,0,1.4.81l2.67-.71A4.19,4.19,0,0,0,17.12,54a4.14,4.14,0,0,0,3.46.59l2.67-.71a1.14,1.14,0,0,0,.8-1.4l-.64-2.4a4.47,4.47,0,0,0-5.49-3.17l-1.46.4c0-.32,0-.63,0-1A17.68,17.68,0,0,1,27.82,29.83Z" id="path84800-4"/><path class="cls-1" d="M33.22,33.3l-.33,2.81a14,14,0,0,0,9.89-7.42s-2-3.64-2.54-3.35-7.43,1-7.43,1Z" id="path89751-2"/><path class="cls-3" d="M42.47,18.56a1.72,1.72,0,1,1-1.71-1.72A1.72,1.72,0,0,1,42.47,18.56Z" id="path93240-4"/><path class="cls-4" d="M32.45,21.61c-9.18.17-20.45,8.9-15.57,19.89l.19.15A17.75,17.75,0,0,1,27.82,29.83L37,28.68h5l.26-.46C40.92,23.49,36.93,21.53,32.45,21.61Z" id="path93378-7"/><path class="cls-2" d="M37.73,27a14.06,14.06,0,0,1-10.64,9.1L27.93,29a4.22,4.22,0,0,1,4.2-3.74h4.3A1.27,1.27,0,0,1,37.73,27Z" id="path89004-5"/><path class="cls-1" d="M34,13.1a11.2,11.2,0,0,1,11,9.19,2.19,2.19,0,0,0,2.05,1.86,2.27,2.27,0,1,1,0,4.53h3.09a2.27,2.27,0,1,0,0-4.53,2.17,2.17,0,0,1-2-1.86,11.2,11.2,0,0,0-11-9.19ZM19.27,46.76a4.82,4.82,0,0,0-1.35.15l-.41.12a4.46,4.46,0,0,1,2.81,3l.64,2.4a1.14,1.14,0,0,1-.81,1.4L18,54.46a4.22,4.22,0,0,0,2.59.13l2.67-.71a1.13,1.13,0,0,0,.8-1.4l-.64-2.4A4.47,4.47,0,0,0,19.27,46.76Z" id="path139379"/><path d="M8.74,54l.64,2.4A2.13,2.13,0,0,0,11.45,58a2.08,2.08,0,0,0,.55-.07l2.67-.72a5.18,5.18,0,0,0,2.8-1.88,5.19,5.19,0,0,0,3.37.23l2.67-.72a2.1,2.1,0,0,0,1.3-1A2.13,2.13,0,0,0,25,52.22l-.64-2.4A5.47,5.47,0,0,0,17.66,46l-.23.06A16.75,16.75,0,0,1,26.62,31.5L26.1,36a1,1,0,0,0,.29.83,1,1,0,0,0,.7.29h.12A13.8,13.8,0,0,0,32,35.37L31.9,36a1,1,0,0,0,.28.83,1,1,0,0,0,.83.28,14.85,14.85,0,0,0,10.35-7.42h6.82a3.27,3.27,0,1,0,0-6.53,1.2,1.2,0,0,1-1.06-1,12.18,12.18,0,0,0-12-10H33.34c-2.1-3.06-6-4.12-9-4.1-.87,0-3.76.18-4.59,1.73s.34,4.16,1.18,5.57a23.91,23.91,0,0,0-9.11,32.27A5.48,5.48,0,0,0,8.74,54ZM17,38.86a11.07,11.07,0,0,1,2.34-9.81c3.69-4.6,10.44-7.27,15.71-6.22A7.72,7.72,0,0,1,41,27.68H38.53c0-.11.09-.2.13-.31a2.27,2.27,0,0,0-.21-2.14,2.37,2.37,0,0,0-2-1h-4.3a5.23,5.23,0,0,0-5.2,4.62l0,.29A18.76,18.76,0,0,0,17,38.86Zm11.89-9.78a3.23,3.23,0,0,1,3.21-2.85h4.3a.49.49,0,0,1,.38.13c.06.08,0,.23,0,.3a13.17,13.17,0,0,1-8.54,8.16Zm5.13,5.74.11-1a15,15,0,0,0,3.4-4.14H41A13,13,0,0,1,34.05,34.82ZM21.52,10.69c.17-.24,1.42-.77,3.52-.68a9.65,9.65,0,0,1,5.77,2.19,23.83,23.83,0,0,0-8.08,2.18C21.86,12.94,21.22,11.26,21.52,10.69ZM11,50.85a3.53,3.53,0,0,1,2.12-1.62l.46-.12a1,1,0,0,0,.67-.6,1,1,0,0,0-.07-.89A21.95,21.95,0,0,1,32.83,14.1h4.29a10.19,10.19,0,0,1,10,8.36,3.16,3.16,0,0,0,3,2.69,1.27,1.27,0,1,1,0,2.53h-7a9.67,9.67,0,0,0-7.67-6.81c-5.95-1.19-13.54,1.79-17.66,6.93A12.9,12.9,0,0,0,16,41.92a18.24,18.24,0,0,0-.55,4.44c0,.34,0,.67,0,1a1,1,0,0,0,.41.76,1,1,0,0,0,.84.15l1.47-.39a3.47,3.47,0,0,1,4.27,2.46l.64,2.4a.16.16,0,0,1-.1.17l-2.67.72a3.2,3.2,0,0,1-2.64-.45,1,1,0,0,0-.82-.14,1,1,0,0,0-.65.53,3.15,3.15,0,0,1-2.06,1.71L11.49,56a.14.14,0,0,1-.18-.1l-.64-2.39A3.5,3.5,0,0,1,11,50.85Z"/><path d="M40.76,21.27A2.72,2.72,0,1,0,38,18.56,2.72,2.72,0,0,0,40.76,21.27Zm0-3.43a.72.72,0,1,1-.72.72A.71.71,0,0,1,40.76,17.84Z"/></g></svg>